<svg width="104" height="24" viewBox="0 0 104 24" fill="none" xmlns="http://www.w3.org/2000/svg">
<path d="M12 0C5.376 0 0 5.376 0 12C0 18.624 5.376 24 12 24C18.624 24 24 18.624 24 12C24 5.376 18.624 0 12 0ZM17.568 8.16C17.388 10.056 16.608 14.664 16.212 16.788C16.044 17.688 15.708 17.988 15.396 18.024C14.7 18.084 14.172 17.568 13.5 17.124C12.444 16.428 11.844 15.996 10.824 15.324C9.636 14.544 10.404 14.112 11.088 13.416C11.268 13.236 14.34 10.44 14.4 10.188C14.412 10.152 14.412 10.044 14.34 9.972C14.268 9.912 14.172 9.936 14.088 9.948C13.98 9.972 12.3 11.088 9.024 13.296C8.544 13.62 8.112 13.788 7.728 13.776C7.296 13.764 6.48 13.536 5.868 13.332C5.112 13.092 4.524 12.96 4.572 12.54C4.596 12.324 4.896 12.108 5.46 11.88C8.964 10.356 11.292 9.348 12.456 8.868C15.792 7.476 16.476 7.236 16.932 7.236C17.028 7.236 17.256 7.26 17.4 7.38C17.52 7.476 17.556 7.608 17.568 7.704C17.556 7.776 17.58 7.992 17.568 8.16Z" fill="#252420"/>
<path d="M62.675 0H41.325C40.593 0 40 0.593 40 1.325V22.676C40 23.407 40.593 24 41.325 24H52.82V14.706H49.692V11.084H52.82V8.413C52.82 5.313 54.713 3.625 57.479 3.625C58.804 3.625 59.942 3.724 60.274 3.768V7.008L58.356 7.009C56.852 7.009 56.561 7.724 56.561 8.772V11.085H60.148L59.681 14.707H56.561V24H62.677C63.407 24 64 23.407 64 22.675V1.325C64 0.593 63.407 0 62.675 0Z" fill="#252420"/>
<path fill-rule="evenodd" clip-rule="evenodd" d="M92 0C88.741 0 88.333 0.014 87.053 0.072C82.695 0.272 80.273 2.69 80.073 7.052C80.014 8.333 80 8.741 80 12C80 15.259 80.014 15.668 80.072 16.948C80.272 21.306 82.69 23.728 87.052 23.928C88.333 23.986 88.741 24 92 24C95.259 24 95.668 23.986 96.948 23.928C101.302 23.728 103.73 21.31 103.927 16.948C103.986 15.668 104 15.259 104 12C104 8.741 103.986 8.333 103.928 7.053C103.732 2.699 101.311 0.273 96.949 0.073C95.668 0.014 95.259 0 92 0ZM92 2.163C95.204 2.163 95.584 2.175 96.85 2.233C100.102 2.381 101.621 3.924 101.769 7.152C101.827 8.417 101.838 8.797 101.838 12.001C101.838 15.206 101.826 15.585 101.769 16.85C101.62 20.075 100.105 21.621 96.85 21.769C95.584 21.827 95.206 21.839 92 21.839C88.796 21.839 88.416 21.827 87.151 21.769C83.891 21.62 82.38 20.07 82.232 16.849C82.174 15.584 82.162 15.205 82.162 12C82.162 8.796 82.175 8.417 82.232 7.151C82.381 3.924 83.896 2.38 87.151 2.232C88.417 2.175 88.796 2.163 92 2.163ZM85.838 12C85.838 8.597 88.597 5.838 92 5.838C95.403 5.838 98.162 8.597 98.162 12C98.162 15.404 95.403 18.163 92 18.163C88.597 18.163 85.838 15.403 85.838 12ZM92 16C89.791 16 88 14.21 88 12C88 9.791 89.791 8 92 8C94.209 8 96 9.791 96 12C96 14.21 94.209 16 92 16ZM96.965 5.595C96.965 4.8 97.61 4.155 98.406 4.155C99.201 4.155 99.845 4.8 99.845 5.595C99.845 6.39 99.201 7.035 98.406 7.035C97.61 7.035 96.965 6.39 96.965 5.595Z" fill="#252420"/>
</svg>
