<svg width="100" height="100" viewBox="0 0 100 100" fill="none" xmlns="http://www.w3.org/2000/svg">
<circle cx="50" cy="50" r="50" fill="#FF7500" fill-opacity="0.2"/>
<path fill-rule="evenodd" clip-rule="evenodd" d="M36.0001 27.6C37.5465 27.6 38.8001 28.8536 38.8001 30.4V33.2H41.6001C43.1465 33.2 44.4001 34.4536 44.4001 36C44.4001 37.5464 43.1465 38.8 41.6001 38.8H38.8001V41.6C38.8001 43.1464 37.5465 44.4 36.0001 44.4C34.4537 44.4 33.2001 43.1464 33.2001 41.6V38.8H30.4001C28.8537 38.8 27.6001 37.5464 27.6001 36C27.6001 34.4536 28.8537 33.2 30.4001 33.2H33.2001V30.4C33.2001 28.8536 34.4537 27.6 36.0001 27.6ZM36.0001 55.6C37.5465 55.6 38.8001 56.8536 38.8001 58.4V61.2H41.6001C43.1465 61.2 44.4001 62.4536 44.4001 64C44.4001 65.5464 43.1465 66.8 41.6001 66.8H38.8001V69.6C38.8001 71.1464 37.5465 72.4 36.0001 72.4C34.4537 72.4 33.2001 71.1464 33.2001 69.6V66.8H30.4001C28.8537 66.8 27.6001 65.5464 27.6001 64C27.6001 62.4536 28.8537 61.2 30.4001 61.2H33.2001V58.4C33.2001 56.8536 34.4537 55.6 36.0001 55.6Z" fill="#FF7500"/>
<path fill-rule="evenodd" clip-rule="evenodd" d="M55.6 27.6C56.8704 27.6 57.9816 28.4553 58.3067 29.6835L61.6085 42.157L70.9992 47.5747C71.8659 48.0747 72.4 48.9993 72.4 50C72.4 51.0006 71.8659 51.9252 70.9992 52.4253L61.6085 57.843L58.3067 70.3165C57.9816 71.5446 56.8704 72.4 55.6 72.4C54.3295 72.4 53.2183 71.5446 52.8932 70.3165L49.5914 57.843L40.2009 52.4253C39.3341 51.9252 38.8001 51.0006 38.8001 50C38.8001 48.9993 39.3341 48.0747 40.2009 47.5747L49.5914 42.157L52.8932 29.6835C53.2183 28.4553 54.3295 27.6 55.6 27.6Z" fill="#FF7500"/>
</svg>
