<svg width="100" height="100" viewBox="0 0 100 100" fill="none" xmlns="http://www.w3.org/2000/svg">
<circle cx="50" cy="50" r="50" fill="#FF7500" fill-opacity="0.2"/>
<path fill-rule="evenodd" clip-rule="evenodd" d="M53.6417 24.9295C54.8073 25.297 55.5999 26.3779 55.5999 27.6V41.6L66.7999 41.6C67.844 41.6 68.8013 42.1809 69.2835 43.1069C69.7656 44.033 69.6925 45.1504 69.0938 46.0057L49.4938 74.0057C48.7929 75.0069 47.5237 75.4379 46.3581 75.0705C45.1925 74.7031 44.3999 73.6221 44.3999 72.4L44.3999 58.4H33.1999C32.1559 58.4 31.1985 57.8191 30.7164 56.8931C30.2342 55.967 30.3073 54.8496 30.9061 53.9943L50.5061 25.9943C51.2069 24.9931 52.4761 24.5621 53.6417 24.9295Z" fill="#FF7500"/>
</svg>
